<svg width="131" height="56" viewBox="0 0 131 56" fill="none" xmlns="http://www.w3.org/2000/svg">
<path d="M19.9441 29.4967C19.9441 32.0973 18.3278 34.2048 16.3337 34.2048C14.3399 34.2048 12.7236 32.097 12.7236 29.4967C12.7236 26.8963 14.3399 24.7886 16.3337 24.7886C18.328 24.7888 19.9441 26.8966 19.9441 29.4967Z" fill="#fff"/>
<path d="M41.5837 29.4967C41.5837 32.0973 39.9674 34.2048 37.9734 34.2048C35.9796 34.2048 34.3633 32.097 34.3633 29.4967C34.3633 26.8963 35.9796 24.7886 37.9734 24.7886C39.9674 24.7888 41.5837 26.8966 41.5837 29.4967Z" fill="#fff"/>
<path d="M38.973 54.4184C40.6694 53.5738 41.9543 52.0814 42.5384 50.2784L47.907 33.6246C48.2943 32.4905 49.8703 31.5308 49.8703 31.5308C51.0185 30.974 51.4745 29.5757 51.4745 29.5757L53.2865 23.7779C53.2865 23.7779 54.0515 21.1694 51.8863 19.8526C51.7483 19.7775 51.3965 19.5693 51.2552 19.527L51.8618 17.6527C52.5225 14.9536 53.6909 13.0465 51.9933 9.75641C51.0498 7.9275 49.0703 6.59212 46.9054 6.19054C45.0283 5.84222 43.0908 6.31629 41.5439 7.43536L36.7062 10.9341C30.6858 14.6204 23.8512 14.6748 17.6857 10.9521C17.6857 10.9521 12.733 6.85869 10.5021 6.29869C5.50353 5.0446 0.359335 9.05769 1.64307 15.2019C1.66692 15.3163 1.68244 15.4326 1.7049 15.5479L3.00554 19.5617C2.82907 19.6048 2.65306 19.6712 2.48075 19.765C1.25005 20.4355 0.526316 22.4087 1.08724 24.1413L2.85871 29.5856C3.1364 30.38 3.64498 30.9462 4.21331 31.3763L4.87081 31.8305C5.45883 32.1512 5.99428 32.7084 6.26942 33.4345L11.7765 50.2525C12.3608 52.0376 13.6337 53.5157 15.3121 54.3589L15.3454 54.3756C15.9087 54.6588 16.5076 54.8649 17.1257 54.9888L17.1859 55.0009C23.791 56.3252 30.5925 56.3328 37.2001 55.0231C37.8153 54.9018 38.4118 54.698 38.973 54.4184ZM34.308 52.4807L34.1234 52.4969C29.4195 52.9182 24.6877 52.9182 19.9838 52.4969C17.1507 52.2433 14.7414 50.3245 13.8604 47.6199L11.944 41.7344L5.59501 22.1438C5.28305 21.181 5.14711 20.1659 5.23372 19.1578C5.42757 16.9032 6.56771 15.4069 7.39914 14.5995C7.91027 14.1032 8.53975 13.7426 9.22782 13.5571C10.7911 13.1354 12.154 13.3098 13.1524 13.6078C13.9491 13.8457 14.6861 14.2482 15.3389 14.7628C17.1956 16.2263 19.1971 17.2747 19.1971 17.2747C24.2424 19.9906 30.9707 19.8215 35.9377 16.8856C35.9377 16.8856 38.1117 15.544 39.0499 14.6354C39.9883 13.7271 42.1762 13.1347 43.8956 13.3202C45.4741 13.4904 46.7662 14.0715 47.9522 15.8152C49.7065 18.3938 48.9423 21.4253 48.3464 23.1669C46.2685 29.2398 40.4353 47.5917 40.4353 47.5917C39.5576 50.3023 37.1457 52.2266 34.308 52.4807Z" fill="#fff"/>
<path d="M41.7423 6.11018C40.8924 6.51848 40.0792 6.99256 39.311 7.52569C38.8647 7.83534 38.434 8.16466 38.0192 8.51298C37.188 9.21101 36.2987 9.83956 35.3345 10.3386C32.9023 11.5974 30.1401 12.3088 27.2122 12.3088C24.1082 12.3088 21.1908 11.5094 18.6543 10.1052C17.8556 9.66309 17.1068 9.13597 16.4097 8.5468C16.028 8.22395 15.6325 7.91732 15.2237 7.62759C14.4282 7.06435 13.5854 6.56457 12.7007 6.13681C12.4082 5.99485 12.1115 5.86098 11.8105 5.73523C11.326 5.53305 11.2579 4.87138 11.6986 4.58605L11.7231 4.57007C11.9232 4.43945 12.1254 4.313 12.3288 4.18817C16.6615 1.53108 21.7577 0 27.2122 0C32.6668 0 37.763 1.53108 42.0957 4.18817C42.2988 4.313 42.501 4.43945 42.7013 4.57007L42.7157 4.57934C43.1562 4.8635 43.0921 5.5217 42.6078 5.72295C42.3153 5.84431 42.0267 5.97354 41.7423 6.11018Z" fill="#fff"/>
<path d="M60.3594 16.6304C60.3594 11.8079 63.362 8.12274 68.1618 8.12274C72.1654 8.12274 74.5312 10.5112 74.8723 13.6048H71.5966C71.3009 11.967 70.0725 10.8979 68.1618 10.8979C65.1592 10.8979 63.7261 13.4001 63.7261 16.6304C63.7261 19.9515 65.4549 22.3399 68.1845 22.3399C70.1183 22.3399 71.4829 21.1799 71.6876 19.4737H74.9179C74.8269 20.9068 74.2127 22.2945 73.1207 23.3182C72.0061 24.3645 70.4366 25.0468 68.1845 25.0468C63.6124 25.0466 60.3594 21.521 60.3594 16.6304Z" fill="#fff"/>
<path d="M76.6246 26.0932H77.7164C78.945 26.0932 79.4452 25.4563 79.4452 24.5007C79.4452 23.8639 79.2178 23.1133 78.5582 21.339L75.4189 13.0361H78.6719L80.4008 18.2907C80.7646 19.3598 81.1514 20.8383 81.1514 20.8383H81.1966C81.1966 20.8383 81.515 19.3598 81.8791 18.2907L83.5169 13.0361H86.6333L82.5613 25.0012C81.6743 27.5944 80.8098 28.527 78.4443 28.527H76.6246V26.0932Z" fill="#fff"/>
<path d="M90.706 23.2499H90.6604V24.7057H87.6807V8.16998H90.7741V14.4464H90.8424C91.4793 13.4682 92.4802 12.7176 94.0954 12.7176C97.0297 12.7176 99.1224 15.2427 99.1224 18.8822C99.1224 22.6584 97.1207 25.0468 94.1864 25.0468C92.5486 25.0468 91.3885 24.3416 90.706 23.2499ZM95.9836 18.8822C95.9836 16.7212 95.1193 15.2197 93.3904 15.2197C91.4344 15.2197 90.7062 16.7895 90.7062 18.9503C90.7062 21.0886 91.7753 22.4536 93.5041 22.4536C95.0961 22.4536 95.9836 21.1342 95.9836 18.8822Z" fill="#fff"/>
<path d="M99.9873 18.8595C99.9873 15.402 102.33 12.7178 105.743 12.7178C109.496 12.7178 111.498 15.5838 111.498 19.7468H103.036C103.263 21.5437 104.264 22.6584 106.016 22.6584C107.221 22.6584 107.926 22.1125 108.268 21.2253H111.316C110.884 23.2953 109.041 25.0468 106.038 25.0468C102.171 25.0468 99.9873 22.3399 99.9873 18.8595ZM103.081 17.6084H108.268C108.177 16.1299 107.198 15.1063 105.788 15.1063C104.15 15.1063 103.354 16.0843 103.081 17.6084Z" fill="#fff"/>
<path d="M115.91 14.9015H115.979C116.684 13.5821 117.48 12.8996 118.845 12.8996C119.186 12.8996 119.391 12.9225 119.573 12.9906V15.6977H119.504C117.48 15.493 116.024 16.562 116.024 19.0188V24.7056H112.931V13.0362H115.911V14.9015H115.91Z" fill="#fff"/>
<path d="M72.8031 45.2234H72.7574C71.643 47.0889 70.1189 47.7485 68.1853 47.7485C65.7287 47.7485 63.8178 46.8613 62.4757 45.3828C61.1339 43.8816 60.3604 41.7882 60.3604 39.3319C60.3604 36.625 61.3157 34.2592 63.0214 32.6892C64.341 31.4836 66.0696 30.824 68.2536 30.824C72.3482 30.824 74.6912 33.076 75.2144 36.2607H71.9844C71.6205 34.6914 70.4146 33.5538 68.3221 33.5538C65.251 33.5538 63.7268 36.1016 63.7268 39.3316C63.7268 42.6527 65.4784 45.0868 68.2767 45.0868C70.8016 45.0868 72.4621 43.1986 72.4621 41.4016V41.3106H68.5493V38.7628H75.3965V47.4069H72.917L72.8031 45.2234Z" fill="#fff"/>
<path d="M76.875 41.5612C76.875 38.1033 79.218 35.4191 82.6304 35.4191C86.3834 35.4191 88.3855 38.2851 88.3855 42.4482H79.9235C80.1507 44.2454 81.1516 45.3599 82.9032 45.3599C84.1091 45.3599 84.8143 44.814 85.1555 43.9267H88.2037C87.7713 45.9967 85.9288 47.7483 82.9264 47.7483C79.0585 47.7485 76.875 45.0414 76.875 41.5612ZM80.9469 31.3247H84.268L86.4522 34.1907H83.7675L82.6758 32.6214H82.6304L81.5157 34.1907H78.8086L80.9469 31.3247ZM79.9687 40.3099H85.1552C85.0642 38.8314 84.0862 37.8078 82.6758 37.8078C81.0379 37.8078 80.2417 38.7858 79.9687 40.3099Z" fill="#fff"/>
<path d="M92.8447 37.3299H92.9128C93.709 36.0791 94.778 35.4193 96.3705 35.4193C98.7816 35.4193 100.397 37.2389 100.397 39.7867V47.4071H97.3033V40.2415C97.3033 38.9907 96.5754 38.1037 95.2787 38.1037C93.9139 38.1037 92.913 39.1956 92.913 40.7879V47.4073H89.8193V35.7377H92.8449L92.8447 37.3299Z" fill="#fff"/>
<path d="M102.308 31.1428H105.401V33.9176H102.308V31.1428ZM102.308 35.7379H105.401V47.4073H102.308V35.7379Z" fill="#fff"/>
<path d="M106.834 41.5839C106.834 38.1034 109.313 35.4193 112.93 35.4193C116.547 35.4193 119.027 38.1034 119.027 41.5839C119.027 45.0643 116.547 47.7485 112.93 47.7485C109.313 47.7485 106.834 45.0643 106.834 41.5839ZM115.888 41.5839C115.888 39.3091 114.818 37.7623 112.93 37.7623C111.019 37.7623 109.973 39.3091 109.973 41.5839C109.973 43.8586 111.019 45.3827 112.93 45.3827C114.818 45.3827 115.888 43.8586 115.888 41.5839Z" fill="#fff"/>
<path d="M119.732 43.6312H122.599C122.803 44.973 123.759 45.5645 125.146 45.5645C126.511 45.5645 127.284 45.0416 127.284 44.2227C127.284 43.108 125.806 42.9943 124.213 42.6758C122.121 42.2661 120.073 41.6976 120.073 39.1498C120.073 36.6249 122.166 35.4193 124.828 35.4193C127.898 35.4193 129.605 36.9434 129.832 39.2864H127.034C126.897 38.0354 126.102 37.5803 124.782 37.5803C123.576 37.5803 122.78 38.0354 122.78 38.8767C122.78 39.8777 124.327 39.9689 125.987 40.3098C127.944 40.7195 130.104 41.2654 130.104 43.995C130.104 46.338 128.103 47.7485 125.191 47.7485C121.802 47.7485 119.914 46.1106 119.732 43.6312Z" fill="#fff"/>
</svg>
