<svg width="24" height="25" viewBox="0 0 24 25" fill="none" xmlns="http://www.w3.org/2000/svg">
<g clip-path="url(#clip0_4181_12322)">
<path d="M15.3334 18.2051C15.3334 18.3819 15.2631 18.5515 15.1381 18.6765C15.0131 18.8015 14.8435 18.8717 14.6667 18.8717H5.33337C5.18671 18.8717 5.04671 19.0051 4.92671 19.0917L2.66671 20.8717V10.2051C2.66671 10.0283 2.73695 9.8587 2.86197 9.73367C2.98699 9.60865 3.15656 9.53841 3.33337 9.53841H5.90671V8.20508H3.33337C2.80294 8.20508 2.29423 8.41579 1.91916 8.79086C1.54409 9.16594 1.33337 9.67465 1.33337 10.2051V22.2051C1.33437 22.3289 1.36982 22.45 1.43576 22.5548C1.5017 22.6596 1.59552 22.7439 1.70671 22.7984C1.81383 22.8471 1.93193 22.8666 2.04902 22.8549C2.16612 22.8432 2.27802 22.8007 2.37337 22.7317L5.80671 20.2051H14.7667C15.0194 20.2125 15.2709 20.1681 15.5057 20.0744C15.7405 19.9807 15.9535 19.8398 16.1316 19.6604C16.3097 19.4811 16.4491 19.267 16.5412 19.0316C16.6332 18.7962 16.6759 18.5444 16.6667 18.2917V17.5384H15.3334V18.2051Z" fill="white"/>
<path d="M20.6667 3.53906H9.33337C8.80294 3.53906 8.29423 3.74978 7.91916 4.12485C7.54409 4.49992 7.33337 5.00863 7.33337 5.53906V13.5391C7.33337 14.0695 7.54409 14.5782 7.91916 14.9533C8.29423 15.3284 8.80294 15.5391 9.33337 15.5391H18.3667L21.5534 18.0124C21.6481 18.0824 21.7597 18.1261 21.8768 18.139C21.9939 18.1519 22.1123 18.1335 22.22 18.0857C22.3335 18.0317 22.4294 17.9467 22.4966 17.8405C22.5638 17.7344 22.5997 17.6114 22.6 17.4857V5.53906C22.6003 5.01998 22.3988 4.52112 22.038 4.14791C21.6772 3.77469 21.1855 3.55637 20.6667 3.53906ZM21.3334 16.1657L19 14.3457C18.8837 14.2554 18.7407 14.2062 18.5934 14.2057H9.33337C9.15656 14.2057 8.98699 14.1355 8.86197 14.0105C8.73695 13.8854 8.66671 13.7159 8.66671 13.5391V5.53906C8.66671 5.36225 8.73695 5.19268 8.86197 5.06766C8.98699 4.94263 9.15656 4.8724 9.33337 4.8724H20.6667C20.8449 4.88857 21.0111 4.96934 21.1338 5.0995C21.2566 5.22966 21.3276 5.40022 21.3334 5.57906V16.1657Z" fill="white"/>
</g>
<defs>
<clipPath id="clip0_4181_12322">
<rect width="24" height="24" fill="white" transform="translate(0 0.87207)"/>
</clipPath>
</defs>
</svg>
