<svg width="16" height="16" viewBox="0 0 16 16" fill="none" xmlns="http://www.w3.org/2000/svg">
<g clip-path="url(#clip0_4181_12386)">
<path d="M1.33203 4.00065H14.6654M6.66536 7.33398V10.6673M9.33203 7.33398V10.6673M2.66536 4.00065H13.332L12.2787 13.4807C12.2426 13.8069 12.0874 14.1084 11.8429 14.3273C11.5983 14.5463 11.2816 14.6673 10.9534 14.6673H5.04403C4.71579 14.6673 4.39907 14.5463 4.15453 14.3273C3.90999 14.1084 3.7548 13.8069 3.7187 13.4807L2.66536 4.00065ZM4.89536 2.09865C5.0032 1.86996 5.17384 1.67665 5.38737 1.54126C5.6009 1.40587 5.84853 1.33398 6.10136 1.33398H9.89603C10.149 1.33385 10.3968 1.40568 10.6104 1.54108C10.8241 1.67648 10.9948 1.86986 11.1027 2.09865L11.9987 4.00065H3.9987L4.89536 2.09865Z" stroke="#fff" stroke-width='1.5' stroke-linecap="round" stroke-linejoin="round"/>
</g>
<defs>
<clipPath id="clip0_4181_12386">
<rect width="16" height="16" fill="white"/>
</clipPath>
</defs>
</svg>
