<svg width="32" height="32" viewBox="0 0 32 32" fill="none" xmlns="http://www.w3.org/2000/svg">
<path d="M29.3465 5.4006L27.4665 4.53393L26.5999 2.65393C26.5468 2.53754 26.4614 2.43886 26.3539 2.36966C26.2463 2.30047 26.1211 2.26367 25.9932 2.26367C25.8653 2.26367 25.7401 2.30047 25.6325 2.36966C25.525 2.43886 25.4396 2.53754 25.3865 2.65393L24.5332 4.53393L22.6532 5.4006C22.5368 5.45363 22.4381 5.53902 22.3689 5.64659C22.2997 5.75416 22.2629 5.87936 22.2629 6.00727C22.2629 6.13517 22.2997 6.26037 22.3689 6.36794C22.4381 6.47551 22.5368 6.5609 22.6532 6.61393L24.5332 7.46727L25.3999 9.34727C25.4529 9.46366 25.5383 9.56234 25.6459 9.63154C25.7534 9.70074 25.8786 9.73753 26.0065 9.73753C26.1344 9.73753 26.2596 9.70074 26.3672 9.63154C26.4748 9.56234 26.5602 9.46366 26.6132 9.34727L27.4665 7.46727L29.3465 6.6006C29.8665 6.37393 29.8665 5.62727 29.3465 5.4006Z" fill="white"/>
<path d="M11.9999 19.0003C12.9204 19.0003 13.6666 18.2541 13.6666 17.3337C13.6666 16.4132 12.9204 15.667 11.9999 15.667C11.0794 15.667 10.3333 16.4132 10.3333 17.3337C10.3333 18.2541 11.0794 19.0003 11.9999 19.0003Z" fill="white"/>
<path d="M19.9999 19.0003C20.9204 19.0003 21.6666 18.2541 21.6666 17.3337C21.6666 16.4132 20.9204 15.667 19.9999 15.667C19.0794 15.667 18.3333 16.4132 18.3333 17.3337C18.3333 18.2541 19.0794 19.0003 19.9999 19.0003Z" fill="white"/>
<path d="M25.9998 11.7337C24.9598 11.7337 24.0132 11.1203 23.5732 10.1737L23.0265 8.97366L21.8265 8.42699C21.3625 8.21285 20.9693 7.87078 20.693 7.44093C20.4166 7.01109 20.2687 6.51132 20.2665 6.00033C20.2665 5.12033 20.7198 4.32033 21.4265 3.82699C19.7732 3.09366 17.9332 2.66699 15.9998 2.66699C8.63984 2.66699 2.6665 8.64033 2.6665 16.0003C2.6665 23.3603 8.63984 29.3337 15.9998 29.3337C23.3598 29.3337 29.3332 23.3603 29.3332 16.0003C29.3332 14.067 28.9065 12.227 28.1732 10.5737C27.6798 11.2803 26.8798 11.7337 25.9998 11.7337ZM15.9998 26.667C10.1198 26.667 5.33317 21.8803 5.33317 16.0003C5.33317 15.9337 5.3465 15.867 5.33317 15.8137C8.79984 14.507 11.5865 11.827 12.9865 8.41366C14.2371 9.95116 15.8146 11.1905 17.6045 12.0416C19.3943 12.8927 21.3513 13.3341 23.3332 13.3337C24.3332 13.3337 25.2932 13.2137 26.2265 13.0137C26.5065 13.9603 26.6665 14.9603 26.6665 16.0003C26.6665 21.8803 21.8798 26.667 15.9998 26.667Z" fill="white"/>
</svg>
