<svg width="16" height="16" viewBox="0 0 16 16" fill="none" xmlns="http://www.w3.org/2000/svg">
<g clip-path="url(#clip0_4181_12818)">
<path d="M9.33325 7.33398V10.6673M2.66659 4.00065H13.3333L12.2799 13.4806C12.2438 13.8069 12.0886 14.1084 11.8441 14.3273C11.5995 14.5463 11.2828 14.6673 10.9546 14.6673H5.04525C4.71701 14.6673 4.40029 14.5463 4.15575 14.3273C3.91121 14.1084 3.75603 13.8069 3.71992 13.4806L2.66659 4.00065ZM4.89658 2.09865C5.00442 1.86996 5.17506 1.67665 5.38859 1.54126C5.60212 1.40587 5.84975 1.33398 6.10259 1.33398H9.89725C10.1502 1.33385 10.398 1.40568 10.6116 1.54108C10.8253 1.67648 10.996 1.86986 11.1039 2.09865L11.9999 4.00065H3.99992L4.89658 2.09865V2.09865ZM1.33325 4.00065H14.6666H1.33325ZM6.66658 7.33398V10.6673V7.33398Z" stroke="#7C7C7C" stroke-linecap="round" stroke-linejoin="round"/>
</g>
<defs>
<clipPath id="clip0_4181_12818">
<rect width="16" height="16" fill="white"/>
</clipPath>
</defs>
</svg>
