<svg width="16" height="16" viewBox="0 0 16 16" fill="none" xmlns="http://www.w3.org/2000/svg">
<path d="M12 1.33301H6C5.26667 1.33301 4.66667 1.93301 4.66667 2.66634V10.6663C4.66667 11.3997 5.26667 11.9997 6 11.9997H12C12.7333 11.9997 13.3333 11.3997 13.3333 10.6663V2.66634C13.3333 1.93301 12.7333 1.33301 12 1.33301ZM12 10.6663H6V2.66634H12V10.6663ZM2 9.99967V8.66634H3.33333V9.99967H2ZM2 6.33301H3.33333V7.66634H2V6.33301ZM6.66667 13.333H8V14.6663H6.66667V13.333ZM2 12.333V10.9997H3.33333V12.333H2ZM3.33333 14.6663C2.6 14.6663 2 14.0663 2 13.333H3.33333V14.6663ZM5.66667 14.6663H4.33333V13.333H5.66667V14.6663ZM9 14.6663V13.333H10.3333C10.3333 14.0663 9.73333 14.6663 9 14.6663ZM3.33333 3.99967V5.33301H2C2 4.59967 2.6 3.99967 3.33333 3.99967Z" fill="#7C7C7C"/>
</svg>
