<svg width="24" height="24" viewBox="0 0 24 24" fill="none" xmlns="http://www.w3.org/2000/svg">
<path d="M8.99999 18.7504C8.99999 18.5515 9.07901 18.3607 9.21966 18.2201C9.36032 18.0794 9.55108 18.0004 9.74999 18.0004H14.25C14.4489 18.0004 14.6397 18.0794 14.7803 18.2201C14.921 18.3607 15 18.5515 15 18.7504C15 18.9493 14.921 19.1401 14.7803 19.2807C14.6397 19.4214 14.4489 19.5004 14.25 19.5004H9.74999C9.55108 19.5004 9.36032 19.4214 9.21966 19.2807C9.07901 19.1401 8.99999 18.9493 8.99999 18.7504ZM4.49999 12.0934C4.49999 10.1404 6.35249 8.64791 8.29499 8.82941C10.7596 9.05944 13.2404 9.05944 15.705 8.82941C17.6475 8.64791 19.5 10.1404 19.5 12.0934V13.8289C19.5061 14.1608 19.3941 14.4841 19.1839 14.741C18.9737 14.9979 18.679 15.1717 18.3525 15.2314C17.085 15.4519 14.8425 15.7504 12 15.7504C9.15749 15.7504 6.91499 15.4504 5.64749 15.2314C5.32097 15.1717 5.0263 14.9979 4.8161 14.741C4.60591 14.4841 4.49387 14.1608 4.49999 13.8289V12.0934ZM11.313 10.8529C11.2545 10.843 11.1946 10.847 11.138 10.8648C11.0814 10.8825 11.0298 10.9134 10.9875 10.9549L9.60749 12.3049C8.66886 12.249 7.73268 12.1574 6.80099 12.0304C6.70445 12.0208 6.60794 12.049 6.53175 12.1091C6.45555 12.1692 6.40561 12.2564 6.3924 12.3525C6.3792 12.4487 6.40376 12.5462 6.46094 12.6245C6.51811 12.7029 6.60344 12.7561 6.69899 12.7729C7.52399 12.8869 8.54699 12.9964 9.72899 13.0624C9.78106 13.0653 9.83316 13.0574 9.88197 13.0391C9.93079 13.0207 9.97524 12.9924 10.0125 12.9559L11.1435 11.8519L12.414 14.4169C12.4408 14.4707 12.4801 14.5173 12.5286 14.5528C12.5771 14.5882 12.6335 14.6115 12.6929 14.6206C12.7523 14.6297 12.813 14.6244 12.8699 14.6051C12.9269 14.5859 12.9783 14.5532 13.02 14.5099L14.418 13.0549C15.3822 12.9977 16.3439 12.9036 17.301 12.7729C17.3966 12.7561 17.4819 12.7029 17.5391 12.6245C17.5962 12.5462 17.6208 12.4487 17.6076 12.3525C17.5944 12.2564 17.5444 12.1692 17.4682 12.1091C17.3921 12.049 17.2955 12.0208 17.199 12.0304C16.392 12.1414 15.3885 12.2479 14.229 12.3139C14.1346 12.3192 14.0457 12.3599 13.98 12.4279L12.849 13.6054L11.586 11.0554C11.5597 11.0025 11.5212 10.9566 11.4738 10.9215C11.4263 10.8863 11.3712 10.8628 11.313 10.8529Z" fill="#923BC1"/>
<path d="M12.75 2.79904C13.036 2.63394 13.2595 2.37909 13.3858 2.07403C13.5122 1.76896 13.5344 1.43072 13.4489 1.11177C13.3634 0.792821 13.1751 0.510984 12.9131 0.30997C12.6512 0.108956 12.3302 0 12 0C11.6698 0 11.3488 0.108956 11.0869 0.30997C10.8249 0.510984 10.6366 0.792821 10.5511 1.11177C10.4656 1.43072 10.4878 1.76896 10.6142 2.07403C10.7405 2.37909 10.964 2.63394 11.25 2.79904V4.50004H8.25C6.45979 4.50004 4.7429 5.2112 3.47703 6.47707C2.21116 7.74294 1.5 9.45983 1.5 11.25V12C1.10218 12 0.720644 12.1581 0.43934 12.4394C0.158035 12.7207 0 13.1022 0 13.5L0 16.5C0 16.8979 0.158035 17.2794 0.43934 17.5607C0.720644 17.842 1.10218 18 1.5 18V19.5C1.5 20.2957 1.81607 21.0588 2.37868 21.6214C2.94129 22.184 3.70435 22.5 4.5 22.5H19.5C20.2956 22.5 21.0587 22.184 21.6213 21.6214C22.1839 21.0588 22.5 20.2957 22.5 19.5V18C22.8978 18 23.2794 17.842 23.5607 17.5607C23.842 17.2794 24 16.8979 24 16.5V13.5C24 13.1022 23.842 12.7207 23.5607 12.4394C23.2794 12.1581 22.8978 12 22.5 12V11.25C22.5 9.45983 21.7888 7.74294 20.523 6.47707C19.2571 5.2112 17.5402 4.50004 15.75 4.50004H12.75V2.79904ZM21 11.25V19.5C21 19.8979 20.842 20.2794 20.5607 20.5607C20.2794 20.842 19.8978 21 19.5 21H4.5C4.10218 21 3.72064 20.842 3.43934 20.5607C3.15804 20.2794 3 19.8979 3 19.5V11.25C3 9.85765 3.55312 8.52229 4.53769 7.53773C5.52226 6.55316 6.85761 6.00004 8.25 6.00004H15.75C17.1424 6.00004 18.4777 6.55316 19.4623 7.53773C20.4469 8.52229 21 9.85765 21 11.25Z" fill="#923BC1"/>
</svg>
