<svg width="25" height="24" viewBox="0 0 25 24" fill="none" xmlns="http://www.w3.org/2000/svg">
<path d="M14.375 19.5087C14.1352 19.5086 13.9017 19.4315 13.7089 19.2889L13.678 19.265L9.39078 15.7494H6.125C5.82663 15.7494 5.54048 15.6308 5.3295 15.4198C5.11853 15.2089 5 14.9227 5 14.6244V9.37482C5 9.07645 5.11853 8.7903 5.3295 8.57933C5.54048 8.36835 5.82663 8.24982 6.125 8.24982H9.38984L13.677 4.7342L13.708 4.71029C13.8756 4.58688 14.0741 4.51239 14.2815 4.4951C14.489 4.47781 14.6971 4.5184 14.8828 4.61236C15.0686 4.70631 15.2246 4.84995 15.3335 5.02729C15.4425 5.20463 15.5001 5.40872 15.5 5.61685V18.3828C15.5 18.6812 15.3815 18.9673 15.1705 19.1783C14.9595 19.3893 14.6734 19.5078 14.375 19.5078V19.5087ZM18.5 15.7498C18.3721 15.7498 18.2463 15.717 18.1346 15.6546C18.023 15.5922 17.9291 15.5023 17.862 15.3934C17.7948 15.2845 17.7567 15.1603 17.7511 15.0325C17.7455 14.9047 17.7728 14.7776 17.8302 14.6633C18.275 13.7773 18.5005 12.882 18.5005 11.9998C18.5005 11.0923 18.282 10.2223 17.8325 9.3406C17.7464 9.16393 17.733 8.9605 17.7954 8.7741C17.8577 8.58769 17.9907 8.43321 18.1658 8.34389C18.3409 8.25456 18.5441 8.23754 18.7316 8.29648C18.9191 8.35542 19.0759 8.48561 19.1684 8.65904C19.7281 9.75732 20 10.85 20 11.9998C20 13.1169 19.7187 14.2395 19.1703 15.3364C19.1079 15.4607 19.0122 15.5652 18.8938 15.6382C18.7754 15.7112 18.6391 15.7498 18.5 15.7498Z" fill="#923BC1"/>
</svg>
