<svg width="24" height="24" viewBox="0 0 24 24" fill="none" xmlns="http://www.w3.org/2000/svg">
<path d="M10.875 19.5003C10.6354 19.5003 10.402 19.4234 10.2094 19.281C10.1987 19.2735 10.1883 19.2655 10.1784 19.2571L5.895 15.7503H2.625C2.32663 15.7503 2.04048 15.6318 1.8295 15.4208C1.61853 15.2099 1.5 14.9237 1.5 14.6253V9.37534C1.5 9.07697 1.61853 8.79082 1.8295 8.57984C2.04048 8.36886 2.32663 8.25034 2.625 8.25034H5.89453L10.1775 4.74362C10.1874 4.73513 10.1977 4.72715 10.2084 4.71971C10.376 4.59648 10.5744 4.52211 10.7817 4.50486C10.9889 4.4876 11.1969 4.52814 11.3825 4.62196C11.5681 4.71579 11.7241 4.85923 11.8331 5.03636C11.9421 5.21348 11.9999 5.41736 12 5.62534V18.3753C12 18.6737 11.8815 18.9599 11.6705 19.1708C11.4595 19.3818 11.1734 19.5003 10.875 19.5003ZM15 15.7503C14.872 15.7503 14.7462 15.7175 14.6344 15.6551C14.5227 15.5927 14.4288 15.5027 14.3617 15.3938C14.2945 15.2848 14.2564 15.1605 14.2509 15.0326C14.2453 14.9048 14.2726 14.7776 14.3302 14.6633C14.775 13.7788 15.0005 12.8821 15.0005 12.0003C15.0005 11.0919 14.782 10.2219 14.3325 9.34112C14.2464 9.16444 14.233 8.96101 14.2954 8.77461C14.3577 8.58821 14.4907 8.43372 14.6658 8.3444C14.8409 8.25508 15.0441 8.23806 15.2316 8.29699C15.4191 8.35593 15.5759 8.48612 15.6684 8.65955C16.2277 9.75596 16.5 10.8491 16.5 12.0003C16.5 13.1188 16.2187 14.2414 15.6703 15.3374C15.6078 15.4616 15.5121 15.566 15.3937 15.6389C15.2753 15.7118 15.139 15.7504 15 15.7503Z" fill="#923BC1"/>
<path d="M17.25 18.0003C17.1184 18.0003 16.989 17.9657 16.875 17.8999C16.761 17.8341 16.6662 17.7394 16.6004 17.6254C16.5346 17.5114 16.4999 17.382 16.4999 17.2503C16.4999 17.1187 16.5345 16.9893 16.6004 16.8753C17.4868 15.3326 18 14.0398 18 12.0003C18 9.92983 17.4877 8.64592 16.6022 7.12811C16.5051 6.95647 16.4795 6.75348 16.531 6.56311C16.5824 6.37273 16.7068 6.21028 16.8772 6.11092C17.0475 6.01157 17.2501 5.98331 17.4412 6.03227C17.6322 6.08122 17.7963 6.20345 17.8979 6.37248C18.8869 8.06795 19.5 9.60077 19.5 12.0003C19.5 14.3642 18.8879 15.9045 17.9002 17.6253C17.8343 17.7394 17.7395 17.8341 17.6254 17.9C17.5113 17.9658 17.3818 18.0004 17.25 18.0003Z" fill="#923BC1"/>
<path d="M19.5 20.2496C19.3649 20.2495 19.2324 20.2129 19.1164 20.1437C19.0004 20.0746 18.9052 19.9753 18.8409 19.8566C18.7767 19.7378 18.7456 19.6039 18.7512 19.4689C18.7567 19.334 18.7985 19.203 18.8723 19.0899C20.1492 17.131 21 15.1758 21 11.9996C21 8.8824 20.1478 6.90802 18.8676 4.90318C18.8146 4.82007 18.7785 4.72735 18.7613 4.63029C18.7442 4.53323 18.7463 4.43374 18.7676 4.3375C18.7889 4.24126 18.8289 4.15016 18.8854 4.06939C18.9419 3.98862 19.0137 3.91977 19.0968 3.86677C19.1799 3.81377 19.2727 3.77766 19.3697 3.76049C19.4668 3.74333 19.5663 3.74545 19.6625 3.76673C19.7588 3.78802 19.8499 3.82805 19.9306 3.88454C20.0114 3.94104 20.0802 4.01289 20.1333 4.09599C21.5536 6.32255 22.5 8.51865 22.5 11.9996C22.5 15.0347 21.8128 17.326 20.1281 19.9093C20.06 20.0138 19.9668 20.0996 19.8572 20.159C19.7475 20.2184 19.6247 20.2496 19.5 20.2496Z" fill="#923BC1"/>
</svg>
