<svg width="16" height="16" viewBox="0 0 16 16" fill="none" xmlns="http://www.w3.org/2000/svg">
<path d="M13.664 3.75101C13.9572 3.85402 14.2111 4.04552 14.3907 4.29906C14.5703 4.55259 14.6667 4.85564 14.6667 5.16634V11.833C14.6667 12.5845 14.3682 13.3051 13.8368 13.8365C13.3055 14.3678 12.5848 14.6663 11.8334 14.6663H5.16671C4.856 14.6664 4.55295 14.5699 4.29942 14.3903C4.04589 14.2107 3.85439 13.9568 3.75137 13.6637L5.14937 13.6663H11.8334C12.3196 13.6663 12.7859 13.4732 13.1297 13.1294C13.4736 12.7856 13.6667 12.3192 13.6667 11.833V5.16634L13.664 5.13234V3.75101ZM11.4974 1.33301C11.8952 1.33301 12.2767 1.49104 12.558 1.77235C12.8393 2.05365 12.9974 2.43518 12.9974 2.83301V11.4977C12.9974 11.8955 12.8393 12.277 12.558 12.5583C12.2767 12.8396 11.8952 12.9977 11.4974 12.9977H2.83337C2.43555 12.9977 2.05402 12.8396 1.77271 12.5583C1.49141 12.277 1.33337 11.8955 1.33337 11.4977V2.83301C1.33337 2.43518 1.49141 2.05365 1.77271 1.77235C2.05402 1.49104 2.43555 1.33301 2.83337 1.33301H11.4974ZM11.4974 2.33301H2.83337C2.70077 2.33301 2.57359 2.38569 2.47982 2.47945C2.38605 2.57322 2.33337 2.7004 2.33337 2.83301V11.4977C2.33337 11.7737 2.55737 11.9977 2.83337 11.9977H11.498C11.6306 11.9977 11.7578 11.945 11.8516 11.8512C11.9454 11.7575 11.998 11.6303 11.998 11.4977V2.83301C11.998 2.7004 11.9454 2.57322 11.8516 2.47945C11.7578 2.38569 11.63 2.33301 11.4974 2.33301ZM7.16671 4.49967C7.29932 4.49967 7.42649 4.55235 7.52026 4.64612C7.61403 4.73989 7.66671 4.86707 7.66671 4.99967V6.66634H9.33337C9.46598 6.66634 9.59316 6.71902 9.68693 6.81279C9.78069 6.90656 9.83337 7.03373 9.83337 7.16634C9.83337 7.29895 9.78069 7.42613 9.68693 7.51989C9.59316 7.61366 9.46598 7.66634 9.33337 7.66634H7.66671V9.33301C7.66671 9.46562 7.61403 9.59279 7.52026 9.68656C7.42649 9.78033 7.29932 9.83301 7.16671 9.83301C7.0341 9.83301 6.90692 9.78033 6.81315 9.68656C6.71939 9.59279 6.66671 9.46562 6.66671 9.33301V7.66634H5.00004C4.86743 7.66634 4.74026 7.61366 4.64649 7.51989C4.55272 7.42613 4.50004 7.29895 4.50004 7.16634C4.50004 7.03373 4.55272 6.90656 4.64649 6.81279C4.74026 6.71902 4.86743 6.66634 5.00004 6.66634H6.66671V4.99967C6.66671 4.86707 6.71939 4.73989 6.81315 4.64612C6.90692 4.55235 7.0341 4.49967 7.16671 4.49967Z" fill="#7C7C7C"/>
</svg>
