<svg width="25" height="24" viewBox="0 0 25 24" fill="none" xmlns="http://www.w3.org/2000/svg">
<path d="M15.5 4.24993C15.5 3.17193 14.226 2.59993 13.42 3.31593L8.927 7.30993C8.78986 7.43211 8.61266 7.49971 8.429 7.49993H4.75C4.15326 7.49993 3.58097 7.73699 3.15901 8.15894C2.73705 8.5809 2.5 9.1532 2.5 9.74993V14.2469C2.5 14.8437 2.73705 15.416 3.15901 15.8379C3.58097 16.2599 4.15326 16.4969 4.75 16.4969H8.43C8.61366 16.4972 8.79086 16.5648 8.928 16.6869L13.419 20.6799C14.225 21.3969 15.5 20.8249 15.5 19.7459V4.24993ZM16.72 9.21993C16.8606 9.07948 17.0512 9.00059 17.25 9.00059C17.4488 9.00059 17.6394 9.07948 17.78 9.21993L19.5 10.9399L21.22 9.21993C21.2887 9.14625 21.3715 9.08714 21.4635 9.04615C21.5555 9.00516 21.6548 8.98312 21.7555 8.98134C21.8562 8.97956 21.9562 8.99809 22.0496 9.03581C22.143 9.07353 22.2278 9.12968 22.299 9.20089C22.3703 9.27211 22.4264 9.35695 22.4641 9.45033C22.5018 9.54372 22.5204 9.64375 22.5186 9.74445C22.5168 9.84516 22.4948 9.94447 22.4538 10.0365C22.4128 10.1285 22.3537 10.2113 22.28 10.2799L20.56 11.9999L22.28 13.7199C22.3537 13.7886 22.4128 13.8714 22.4538 13.9634C22.4948 14.0554 22.5168 14.1547 22.5186 14.2554C22.5204 14.3561 22.5018 14.4561 22.4641 14.5495C22.4264 14.6429 22.3703 14.7278 22.299 14.799C22.2278 14.8702 22.143 14.9263 22.0496 14.9641C21.9562 15.0018 21.8562 15.0203 21.7555 15.0185C21.6548 15.0167 21.5555 14.9947 21.4635 14.9537C21.3715 14.9127 21.2887 14.8536 21.22 14.7799L19.5 13.0619L17.78 14.7819C17.7113 14.8556 17.6285 14.9147 17.5365 14.9557C17.4445 14.9967 17.3452 15.0187 17.2445 15.0205C17.1438 15.0223 17.0438 15.0038 16.9504 14.9661C16.857 14.9283 16.7722 14.8722 16.701 14.801C16.6297 14.7298 16.5736 14.6449 16.5359 14.5515C16.4982 14.4581 16.4796 14.3581 16.4814 14.2574C16.4832 14.1567 16.5052 14.0574 16.5462 13.9654C16.5872 13.8734 16.6463 13.7906 16.72 13.7219L18.44 11.9999L16.72 10.2799C16.5795 10.1393 16.5007 9.94868 16.5007 9.74993C16.5007 9.55118 16.5795 9.36056 16.72 9.21993Z" fill="#923BC1"/>
</svg>
