<svg width="24" height="24" viewBox="0 0 24 24" fill="none" xmlns="http://www.w3.org/2000/svg">
<path d="M8.825 12L10.3 10.525C10.5 10.325 10.6 10.0917 10.6 9.825C10.6 9.55833 10.5 9.325 10.3 9.125C10.1 8.925 9.86267 8.825 9.588 8.825C9.31267 8.825 9.075 8.925 8.875 9.125L6.7 11.3C6.6 11.4 6.52933 11.5083 6.488 11.625C6.446 11.7417 6.425 11.8667 6.425 12C6.425 12.1333 6.446 12.2583 6.488 12.375C6.52933 12.4917 6.6 12.6 6.7 12.7L8.875 14.875C9.075 15.075 9.31267 15.175 9.588 15.175C9.86267 15.175 10.1 15.075 10.3 14.875C10.5 14.675 10.6 14.4417 10.6 14.175C10.6 13.9083 10.5 13.675 10.3 13.475L8.825 12ZM15.175 12L13.7 13.475C13.5 13.675 13.4 13.9083 13.4 14.175C13.4 14.4417 13.5 14.675 13.7 14.875C13.9 15.075 14.1377 15.175 14.413 15.175C14.6877 15.175 14.925 15.075 15.125 14.875L17.3 12.7C17.4 12.6 17.4707 12.4917 17.512 12.375C17.554 12.2583 17.575 12.1333 17.575 12C17.575 11.8667 17.554 11.7417 17.512 11.625C17.4707 11.5083 17.4 11.4 17.3 11.3L15.125 9.125C15.025 9.025 14.9127 8.95 14.788 8.9C14.6627 8.85 14.5377 8.825 14.413 8.825C14.2877 8.825 14.1627 8.85 14.038 8.9C13.9127 8.95 13.8 9.025 13.7 9.125C13.5 9.325 13.4 9.55833 13.4 9.825C13.4 10.0917 13.5 10.325 13.7 10.525L15.175 12ZM5 21C4.45 21 3.979 20.8043 3.587 20.413C3.19567 20.021 3 19.55 3 19V5C3 4.45 3.19567 3.979 3.587 3.587C3.979 3.19567 4.45 3 5 3H19C19.55 3 20.021 3.19567 20.413 3.587C20.8043 3.979 21 4.45 21 5V19C21 19.55 20.8043 20.021 20.413 20.413C20.021 20.8043 19.55 21 19 21H5ZM5 19H19V5H5V19Z" fill="#fff"/>
</svg>
