<svg width="32" height="32" viewBox="0 0 32 32" fill="none" xmlns="http://www.w3.org/2000/svg">
<path d="M25.3332 13.3346C24.9795 13.3346 24.6404 13.4751 24.3904 13.7252C24.1403 13.9752 23.9998 14.3143 23.9998 14.668V19.1746L22.0265 17.2013C21.3297 16.51 20.388 16.1221 19.4065 16.1221C18.425 16.1221 17.4833 16.51 16.7865 17.2013L15.8532 18.148L12.5465 14.828C11.8497 14.1367 10.908 13.7488 9.9265 13.7488C8.945 13.7488 8.00327 14.1367 7.3065 14.828L5.33317 16.8146V9.33464C5.33317 8.98101 5.47365 8.64188 5.7237 8.39183C5.97374 8.14178 6.31288 8.0013 6.6665 8.0013H17.3332C17.6868 8.0013 18.0259 7.86083 18.276 7.61078C18.526 7.36073 18.6665 7.02159 18.6665 6.66797C18.6665 6.31435 18.526 5.97521 18.276 5.72516C18.0259 5.47511 17.6868 5.33464 17.3332 5.33464H6.6665C5.60564 5.33464 4.58822 5.75606 3.83808 6.50621C3.08793 7.25635 2.6665 8.27377 2.6665 9.33464V25.628C2.67002 26.61 3.06167 27.5507 3.75604 28.2451C4.45042 28.9395 5.39118 29.3311 6.37317 29.3346H22.9598C23.3211 29.3318 23.6802 29.2779 24.0265 29.1746C24.7964 28.9587 25.4742 28.4961 25.9559 27.8578C26.4376 27.2196 26.6966 26.4409 26.6932 25.6413V14.668C26.6932 14.4906 26.6579 14.315 26.5892 14.1515C26.5205 13.988 26.4199 13.8398 26.2933 13.7156C26.1666 13.5914 26.0165 13.4938 25.8516 13.4284C25.6868 13.363 25.5105 13.3311 25.3332 13.3346ZM6.6665 26.668C6.31288 26.668 5.97374 26.5275 5.7237 26.2774C5.47365 26.0274 5.33317 25.6883 5.33317 25.3346V20.5746L9.1865 16.7213C9.38137 16.5275 9.64502 16.4187 9.91984 16.4187C10.1947 16.4187 10.4583 16.5275 10.6532 16.7213L20.6132 26.668H6.6665ZM23.9998 25.3346C23.9913 25.5928 23.9079 25.843 23.7598 26.0546L17.7332 20.0013L18.6798 19.068C18.7754 18.9704 18.8895 18.8929 19.0154 18.84C19.1414 18.7871 19.2766 18.7598 19.4132 18.7598C19.5498 18.7598 19.685 18.7871 19.8109 18.84C19.9368 18.8929 20.0509 18.9704 20.1465 19.068L23.9998 22.948V25.3346ZM27.9998 5.33464H26.6665V4.0013C26.6665 3.64768 26.526 3.30854 26.276 3.05849C26.0259 2.80844 25.6868 2.66797 25.3332 2.66797C24.9795 2.66797 24.6404 2.80844 24.3904 3.05849C24.1403 3.30854 23.9998 3.64768 23.9998 4.0013V5.33464H22.6665C22.3129 5.33464 21.9737 5.47511 21.7237 5.72516C21.4736 5.97521 21.3332 6.31435 21.3332 6.66797C21.3332 7.02159 21.4736 7.36073 21.7237 7.61078C21.9737 7.86083 22.3129 8.0013 22.6665 8.0013H23.9998V9.33464C23.9998 9.68826 24.1403 10.0274 24.3904 10.2774C24.6404 10.5275 24.9795 10.668 25.3332 10.668C25.6868 10.668 26.0259 10.5275 26.276 10.2774C26.526 10.0274 26.6665 9.68826 26.6665 9.33464V8.0013H27.9998C28.3535 8.0013 28.6926 7.86083 28.9426 7.61078C29.1927 7.36073 29.3332 7.02159 29.3332 6.66797C29.3332 6.31435 29.1927 5.97521 28.9426 5.72516C28.6926 5.47511 28.3535 5.33464 27.9998 5.33464Z" fill="white"/>
</svg>
