<svg width="24" height="24" viewBox="0 0 24 24" fill="none" xmlns="http://www.w3.org/2000/svg">
<path d="M21 4.49904V15.749C20.9994 15.8558 20.976 15.9612 20.9314 16.0582C20.8868 16.1552 20.8219 16.2416 20.7413 16.3115C19.3088 17.5519 17.9391 17.999 16.6331 17.999C14.8603 17.999 13.2047 17.1797 11.6644 16.4194C9.17531 15.1865 7.01156 14.1187 4.5 16.1025V20.249C4.5 20.448 4.42098 20.6387 4.28033 20.7794C4.13968 20.92 3.94891 20.999 3.75 20.999C3.55109 20.999 3.36032 20.92 3.21967 20.7794C3.07902 20.6387 3 20.448 3 20.249V4.49904C3.00072 4.3922 3.02426 4.28674 3.06905 4.18973C3.11383 4.09271 3.17883 4.00639 3.25969 3.93654C6.63469 1.01342 9.66375 2.51061 12.3337 3.83154C14.9062 5.10467 17.1366 6.20529 19.7587 3.93654C19.8671 3.84259 20.0002 3.78169 20.1421 3.76106C20.2841 3.74042 20.4289 3.76092 20.5596 3.82013C20.6902 3.87933 20.8012 3.97476 20.8792 4.09509C20.9573 4.21542 20.9992 4.35561 21 4.49904Z" fill="#66C685"/>
</svg>
